<?xml version="1.0" encoding="UTF-8" standalone="no"?>
<!-- Created with Inkscape (http://www.inkscape.org/) -->

<svg
   width="64"
   height="64"
   viewBox="0 0 16.933333 16.933333"
   version="1.1"
   id="svg896"
   inkscape:version="1.4.4 (dcaf3e7d9e, 2026-05-05)"
   sodipodi:docname="onionshare80.svg"
   xmlns:inkscape="http://www.inkscape.org/namespaces/inkscape"
   xmlns:sodipodi="http://sodipodi.sourceforge.net/DTD/sodipodi-0.dtd"
   xmlns="http://www.w3.org/2000/svg"
   xmlns:svg="http://www.w3.org/2000/svg"
   xmlns:rdf="http://www.w3.org/1999/02/22-rdf-syntax-ns#"
   xmlns:cc="http://creativecommons.org/ns#"
   xmlns:dc="http://purl.org/dc/elements/1.1/">
  <defs
     id="defs890">
    <style
       id="current-color-scheme"
       type="text/css">.ColorScheme-Text {color:#d8dee9} .ColorScheme-Highlight {color:#7f7fff}</style>
  </defs>
  <sodipodi:namedview
     id="base"
     pagecolor="#7f3232"
     bordercolor="#666666"
     borderopacity="1.0"
     inkscape:pageopacity="0.0"
     inkscape:pageshadow="2"
     inkscape:zoom="9.861792"
     inkscape:cx="31.130245"
     inkscape:cy="17.593151"
     inkscape:document-units="px"
     inkscape:current-layer="svg896"
     showgrid="false"
     inkscape:window-width="2560"
     inkscape:window-height="1388"
     inkscape:window-x="0"
     inkscape:window-y="0"
     inkscape:window-maximized="1"
     inkscape:showpageshadow="0"
     inkscape:pagecheckerboard="0"
     inkscape:deskcolor="#505050" />
  <metadata
     id="metadata893">
    <rdf:RDF>
      <cc:Work
         rdf:about="">
        <dc:format>image/svg+xml</dc:format>
        <dc:type
           rdf:resource="http://purl.org/dc/dcmitype/StillImage" />
      </cc:Work>
    </rdf:RDF>
  </metadata>
  <path
     id="path5"
     style="fill:currentColor"
     d="M 8.4666666,1.4552083 A 7.011458,7.011458 0 0 0 1.4552082,8.4666667 7.011458,7.011458 0 0 0 8.4666666,15.478125 7.011458,7.011458 0 0 0 15.478125,8.4666667 7.011458,7.011458 0 0 0 8.4666666,1.4552083 Z m 0,2.003274 a 5.0081843,5.0081843 0 0 1 5.0081844,5.0081844 h 1.252046 L 12.222805,10.970759 9.7187126,8.4666667 H 10.970759 A 2.5040922,2.5040922 0 0 0 8.4666666,5.9625743 2.5040922,2.5040922 0 0 0 6.7685791,6.6296803 L 5.3932846,5.2543863 4.9990858,4.8601863 A 5.0081843,5.0081843 0 0 1 8.4666666,3.4584823 Z M 4.7105283,5.9625743 7.2146205,8.4666667 H 5.9625744 a 2.5040922,2.5040922 0 0 0 2.5040922,2.5040923 2.5040922,2.5040922 0 0 0 1.7509084,-0.714058 l 1.422246,1.422246 0.345291,0.345291 A 5.0081843,5.0081843 0 0 1 8.4666666,13.474851 5.0081843,5.0081843 0 0 1 3.4584822,8.4666667 h -1.252046 l 1.482403,-1.4824034 a 5.0081843,5.0081843 0 0 1 0.00148,-0.0044 l 0.00148,0.0015 z"
     class="ColorScheme-Text" />
</svg>
